<svg width="19" height="19" viewBox="0 0 19 19" fill="none" xmlns="http://www.w3.org/2000/svg">
<path d="M17.1067 10.7366L17.2887 8.80806C17.4312 7.2944 17.5025 6.53677 17.2428 6.22406C17.1775 6.14253 17.0967 6.07484 17.0049 6.02496C16.9132 5.97507 16.8124 5.94398 16.7085 5.93352C16.3316 5.90027 15.859 6.4386 14.913 7.51527C14.4237 8.0726 14.1791 8.35048 13.9067 8.39402C13.7546 8.41773 13.5989 8.3928 13.4618 8.32277C13.2093 8.1961 13.0422 7.85173 12.7058 7.16377L10.9348 3.53477C10.2999 2.23406 9.98245 1.58331 9.49954 1.58331C9.01662 1.58331 8.69916 2.23406 8.06424 3.53477L6.29329 7.16377C5.95762 7.85252 5.78979 8.1961 5.53724 8.32277C5.40011 8.39269 5.24444 8.41762 5.09233 8.39402C4.81999 8.35048 4.57537 8.0726 4.08612 7.51527C3.14008 6.4386 2.66745 5.90027 2.29062 5.93352C2.1867 5.94398 2.08592 5.97507 1.99416 6.02496C1.9024 6.07484 1.82152 6.14253 1.75624 6.22406C1.49737 6.53677 1.56862 7.2944 1.71112 8.80806L1.89241 10.7366C2.19166 13.9127 2.34049 15.5016 3.27783 16.4587C4.21279 17.4166 5.61562 17.4166 8.42287 17.4166H10.5754C13.3819 17.4166 14.7847 17.4166 15.7212 16.4587C16.6578 15.5008 16.8074 13.9127 17.1067 10.7366Z" fill="white"/>
</svg>
