<svg width="60" height="60" viewBox="0 0 60 60" fill="none" xmlns="http://www.w3.org/2000/svg">
<path d="M31.77 46.0931C31.4206 46.4294 30.9546 46.6173 30.4697 46.6173C29.9848 46.6173 29.5187 46.4294 29.1694 46.0931L19.2075 36.5062C17.9906 35.3362 18.8194 33.2812 20.5069 33.2812L26.25 33.2812C26.5087 33.2812 26.7187 33.0712 26.7187 32.8125L26.7187 14.5312C26.7187 14.034 26.9163 13.557 27.2679 13.2054C27.6195 12.8538 28.0964 12.6562 28.5937 12.6562L32.3437 12.6562C32.841 12.6562 33.3179 12.8538 33.6696 13.2054C34.0212 13.557 34.2187 14.034 34.2187 14.5312L34.2187 32.8125C34.2187 32.9368 34.2681 33.056 34.356 33.144C34.4439 33.2319 34.5632 33.2812 34.6875 33.2812L40.4306 33.2812C42.1181 33.2812 42.9469 35.3362 41.73 36.5062L31.77 46.0931Z" fill="white"/>
<path d="M1.875 48.75C1.875 49.9811 2.11749 51.2002 2.58863 52.3377C3.05977 53.4751 3.75032 54.5086 4.62087 55.3791C6.37903 57.1373 8.7636 58.125 11.25 58.125L48.75 58.125C51.2364 58.125 53.621 57.1373 55.3791 55.3791C56.2497 54.5086 56.9402 53.4751 57.4114 52.3377C57.8825 51.2002 58.125 49.9811 58.125 48.75L58.125 11.25C58.125 8.7636 57.1373 6.37903 55.3791 4.62087C53.621 2.86272 51.2364 1.875 48.75 1.875L11.25 1.875C10.0189 1.875 8.79977 2.11749 7.66234 2.58863C6.52492 3.05977 5.49142 3.75032 4.62087 4.62087C3.75033 5.49142 3.05977 6.52491 2.58863 7.66234C2.11749 8.79977 1.875 10.0189 1.875 11.25L1.875 48.75ZM11.25 54.375C9.75816 54.375 8.32742 53.7824 7.27252 52.7275C6.21763 51.6726 5.625 50.2418 5.625 48.75L5.625 11.25C5.625 9.75816 6.21763 8.32742 7.27253 7.27252C8.32742 6.21763 9.75816 5.625 11.25 5.625L48.75 5.625C50.2418 5.625 51.6726 6.21763 52.7275 7.27252C53.7824 8.32742 54.375 9.75816 54.375 11.25L54.375 48.75C54.375 50.2418 53.7824 51.6726 52.7275 52.7275C51.6726 53.7824 50.2418 54.375 48.75 54.375L11.25 54.375Z" fill="white"/>
</svg>
