<svg width="144" height="60" viewBox="0 0 144 60" fill="none" xmlns="http://www.w3.org/2000/svg">
<path d="M13.907 31.77C13.5707 31.4207 13.3828 30.9546 13.3828 30.4697C13.3828 29.9848 13.5707 29.5187 13.907 29.1694L23.4938 19.2075C24.6638 17.9906 26.7188 18.8194 26.7188 20.5069V26.25C26.7188 26.5088 26.9288 26.7188 27.1876 26.7188H45.4688C45.9661 26.7188 46.443 26.9163 46.7947 27.2679C47.1463 27.6196 47.3438 28.0965 47.3438 28.5938V32.3438C47.3438 32.841 47.1463 33.318 46.7947 33.6696C46.443 34.0212 45.9661 34.2188 45.4688 34.2188H27.1876C27.0633 34.2188 26.944 34.2681 26.8561 34.3561C26.7682 34.444 26.7188 34.5632 26.7188 34.6875V40.4306C26.7188 42.1181 24.6638 42.9469 23.4938 41.73L13.907 31.77Z" fill="white"/>
<path d="M11.25 1.875C10.0189 1.875 8.79977 2.11749 7.66234 2.58863C6.52492 3.05977 5.49142 3.75032 4.62087 4.62087C2.86272 6.37903 1.875 8.7636 1.875 11.25V48.75C1.875 51.2364 2.86272 53.621 4.62087 55.3791C5.49142 56.2497 6.52492 56.9402 7.66234 57.4114C8.79977 57.8825 10.0189 58.125 11.25 58.125H48.75C51.2364 58.125 53.621 57.1373 55.3791 55.3791C57.1373 53.621 58.125 51.2364 58.125 48.75V11.25C58.125 10.0189 57.8825 8.79977 57.4114 7.66234C56.9402 6.52492 56.2497 5.49142 55.3791 4.62087C54.5086 3.75032 53.4751 3.05977 52.3377 2.58863C51.2002 2.11749 49.9811 1.875 48.75 1.875H11.25ZM5.625 11.25C5.625 9.75816 6.21763 8.32742 7.27252 7.27252C8.32742 6.21763 9.75816 5.625 11.25 5.625H48.75C50.2418 5.625 51.6726 6.21763 52.7275 7.27252C53.7824 8.32742 54.375 9.75816 54.375 11.25V48.75C54.375 50.2418 53.7824 51.6726 52.7275 52.7275C51.6726 53.7824 50.2418 54.375 48.75 54.375H11.25C9.75816 54.375 8.32742 53.7824 7.27252 52.7275C6.21763 51.6726 5.625 50.2418 5.625 48.75V11.25Z" fill="white"/>
<path d="M130.093 28.23C130.429 28.5793 130.617 29.0454 130.617 29.5303C130.617 30.0152 130.429 30.4813 130.093 30.8306L120.506 40.7925C119.336 42.0094 117.281 41.1806 117.281 39.4931L117.281 33.75C117.281 33.4912 117.071 33.2812 116.812 33.2812L98.5312 33.2812C98.0339 33.2812 97.557 33.0837 97.2053 32.7321C96.8537 32.3804 96.6562 31.9035 96.6562 31.4062L96.6562 27.6562C96.6562 27.159 96.8537 26.682 97.2053 26.3304C97.557 25.9788 98.0339 25.7812 98.5312 25.7812L116.812 25.7812C116.937 25.7812 117.056 25.7319 117.144 25.6439C117.232 25.556 117.281 25.4368 117.281 25.3125L117.281 19.5694C117.281 17.8819 119.336 17.0531 120.506 18.27L130.093 28.23Z" fill="white"/>
<path d="M132.75 58.125C133.981 58.125 135.2 57.8825 136.338 57.4114C137.475 56.9402 138.509 56.2497 139.379 55.3791C141.137 53.621 142.125 51.2364 142.125 48.75L142.125 11.25C142.125 8.7636 141.137 6.37903 139.379 4.62087C138.509 3.75032 137.475 3.05977 136.338 2.58863C135.2 2.11749 133.981 1.875 132.75 1.875L95.25 1.875C92.7636 1.875 90.379 2.86272 88.6209 4.62087C86.8627 6.37902 85.875 8.76359 85.875 11.25L85.875 48.75C85.875 49.9811 86.1175 51.2002 86.5886 52.3377C87.0598 53.4751 87.7503 54.5086 88.6209 55.3791C89.4914 56.2497 90.5249 56.9402 91.6623 57.4114C92.7998 57.8825 94.0189 58.125 95.25 58.125L132.75 58.125ZM138.375 48.75C138.375 50.2418 137.782 51.6726 136.727 52.7275C135.673 53.7824 134.242 54.375 132.75 54.375L95.25 54.375C93.7582 54.375 92.3274 53.7824 91.2725 52.7275C90.2176 51.6726 89.625 50.2418 89.625 48.75L89.625 11.25C89.625 9.75815 90.2176 8.32741 91.2725 7.27252C92.3274 6.21763 93.7582 5.625 95.25 5.625L132.75 5.625C134.242 5.625 135.673 6.21763 136.727 7.27252C137.782 8.32742 138.375 9.75816 138.375 11.25L138.375 48.75Z" fill="white"/>
</svg>
