<svg width="16" height="16" viewBox="0 0 16 16" fill="none" xmlns="http://www.w3.org/2000/svg">
<path d="M2.0882 1.082C1.4942 0.784999 0.835698 1.35 1.0387 1.9825L2.4677 6.424C2.49579 6.51131 2.54736 6.58921 2.61677 6.64918C2.68617 6.70915 2.77073 6.74887 2.8612 6.764L8.7957 7.7535C9.0742 7.8 9.0742 8.2 8.7957 8.2465L2.8617 9.2355C2.77114 9.25054 2.68647 9.29023 2.61698 9.3502C2.54748 9.41017 2.49583 9.48812 2.4677 9.5755L1.0387 14.0185C0.835198 14.651 1.4937 15.216 2.0882 14.919L14.5852 8.6715C15.1382 8.395 15.1382 7.6065 14.5852 7.3295L2.0882 1.082Z" fill="white"/>
</svg>
