<svg width="56" height="56" viewBox="0 0 56 56" fill="none" xmlns="http://www.w3.org/2000/svg">
<path d="M46.6665 25.6667V30.3333H9.33317V25.6667C9.33317 25.0478 9.08734 24.4543 8.64975 24.0167C8.21217 23.5792 7.61868 23.3333 6.99984 23.3333C6.381 23.3333 5.78751 23.5792 5.34992 24.0167C4.91234 24.4543 4.6665 25.0478 4.6665 25.6667V30.3333C4.6665 31.571 5.15817 32.758 6.03334 33.6332C6.90851 34.5083 8.09549 35 9.33317 35H46.6665C47.9042 35 49.0912 34.5083 49.9663 33.6332C50.8415 32.758 51.3332 31.571 51.3332 30.3333V25.6667C51.3332 25.0478 51.0873 24.4543 50.6498 24.0167C50.2122 23.5792 49.6187 23.3333 48.9998 23.3333C48.381 23.3333 47.7875 23.5792 47.3499 24.0167C46.9123 24.4543 46.6665 25.0478 46.6665 25.6667Z" fill="white"/>
</svg>
