<svg width="60" height="60" viewBox="0 0 60 60" fill="none" xmlns="http://www.w3.org/2000/svg">
<path d="M28.23 13.9069C28.5794 13.5706 29.0454 13.3827 29.5303 13.3827C30.0152 13.3827 30.4813 13.5706 30.8306 13.9069L40.7925 23.4937C42.0094 24.6637 41.1806 26.7187 39.4931 26.7187L33.75 26.7187C33.4913 26.7187 33.2813 26.9287 33.2813 27.1875L33.2813 45.4687C33.2813 45.966 33.0837 46.4429 32.7321 46.7946C32.3805 47.1462 31.9036 47.3437 31.4063 47.3437L27.6563 47.3437C27.159 47.3437 26.6821 47.1462 26.3304 46.7946C25.9788 46.4429 25.7813 45.966 25.7813 45.4687L25.7813 27.1875C25.7813 27.0632 25.7319 26.9439 25.644 26.856C25.5561 26.7681 25.4368 26.7187 25.3125 26.7187L19.5694 26.7187C17.8819 26.7187 17.0531 24.6637 18.27 23.4937L28.23 13.9069Z" fill="white"/>
<path d="M58.125 11.25C58.125 10.0189 57.8825 8.79977 57.4114 7.66234C56.9402 6.52492 56.2497 5.49142 55.3791 4.62087C53.621 2.86272 51.2364 1.875 48.75 1.875L11.25 1.875C8.7636 1.875 6.37903 2.86272 4.62087 4.62087C3.75032 5.49142 3.05977 6.52492 2.58863 7.66234C2.11749 8.79977 1.875 10.0189 1.875 11.25L1.875 48.75C1.875 51.2364 2.86272 53.621 4.62087 55.3791C6.37903 57.1373 8.7636 58.125 11.25 58.125L48.75 58.125C49.9811 58.125 51.2002 57.8825 52.3377 57.4114C53.4751 56.9402 54.5086 56.2497 55.3791 55.3791C56.2497 54.5086 56.9402 53.4751 57.4114 52.3377C57.8825 51.2002 58.125 49.9811 58.125 48.75L58.125 11.25ZM48.75 5.625C50.2418 5.625 51.6726 6.21763 52.7275 7.27252C53.7824 8.32742 54.375 9.75816 54.375 11.25L54.375 48.75C54.375 50.2418 53.7824 51.6726 52.7275 52.7275C51.6726 53.7824 50.2418 54.375 48.75 54.375L11.25 54.375C9.75816 54.375 8.32742 53.7824 7.27252 52.7275C6.21763 51.6726 5.625 50.2418 5.625 48.75L5.625 11.25C5.625 9.75816 6.21763 8.32742 7.27252 7.27253C8.32742 6.21763 9.75816 5.625 11.25 5.625L48.75 5.625Z" fill="white"/>
</svg>
